<svg xmlns="http://www.w3.org/2000/svg" xmlns:xlink="http://www.w3.org/1999/xlink" width="274" height="68.504" viewBox="0 0 274 68.504">
  <defs>
    <style>
      .cls-1 {
        clip-path: url(#clip-path);
      }

      .cls-2 {
        fill-rule: evenodd;
      }
    </style>
    <clipPath id="clip-path">
      <rect id="Rectangle_60" data-name="Rectangle 60" width="274" height="68.504"/>
    </clipPath>
  </defs>
  <g id="Group_68" data-name="Group 68" transform="translate(0 0)">
    <g id="Group_27" data-name="Group 27" class="cls-1" transform="translate(0 0)">
      <path id="Path_13" data-name="Path 13" class="cls-2" d="M102.033,38.4c0-3.555,2.909-12.721,17.1-12.721,5.327,0,9.521,1.024,12.738,3.015,2.764,1.674,4.54,4.687,5.233,8.865h-9.152c-1.468-4.535-5.5-5.318-8.707-5.318-7.054,0-8.028,3.289-8.028,4.583,0,5.106,7.58,5.538,14.283,7.185,5.329,1.306,12.948,3.449,12.948,11.8,0,9.64-10.088,12.821-18.64,12.676-6.743-.114-11.484-1.373-14.53-3.925a12.669,12.669,0,0,1-4.45-8.811h9.434c.951,5.8,6.446,6.176,10.383,6.176,2.338,0,8.566-.675,8.566-4.757,0-4.365-5.127-5.2-14.713-7.611-4.016-1.011-12.464-2.716-12.464-11.158m90.63-12.721h8.558V68.5h-8.558Zm72.782,0H274V68.5h-8.558Zm-18.524,22a13.586,13.586,0,0,0-27.171,0V68.495h-8.568l.017-20.667a22.14,22.14,0,0,1,44.28,0l.008,20.667h-8.566ZM71.976,68.495a21.4,21.4,0,1,1,21.4-21.4,21.394,21.394,0,0,1-21.4,21.4m0-34.158A12.737,12.737,0,1,0,84.714,47.081,12.738,12.738,0,0,0,71.976,34.337M21.4,68.495A21.4,21.4,0,0,1,0,47.092V0H8.56V29.961A21.408,21.408,0,1,1,21.4,68.495m.006-34.158A12.737,12.737,0,1,0,34.148,47.081,12.74,12.74,0,0,0,21.41,34.337m125.683,4.072c0-3.553,2.909-12.721,17.1-12.721,5.324,0,9.519,1.024,12.738,3.017,2.756,1.672,4.533,4.685,5.233,8.865H173c-1.466-4.535-5.5-5.318-8.7-5.318-7.052,0-8.028,3.289-8.028,4.581,0,5.106,7.588,5.54,14.289,7.185,5.324,1.308,12.942,3.451,12.942,11.8,0,9.64-10.088,12.821-18.633,12.676-6.745-.114-11.494-1.373-14.532-3.927a12.642,12.642,0,0,1-4.459-8.811h9.434c.959,5.806,6.45,6.178,10.383,6.178,2.347,0,8.576-.675,8.576-4.756,0-4.367-5.136-5.2-14.711-7.611-4.027-1.011-12.466-2.718-12.466-11.158" transform="translate(0 0.001)"/>
    </g>
  </g>
</svg>
